<svg id="Layer_4" data-name="Layer 4" xmlns="http://www.w3.org/2000/svg" xmlns:xlink="http://www.w3.org/1999/xlink" viewBox="0 0 599.65 549.28"><defs><style>.cls-1,.cls-11,.cls-3,.cls-30,.cls-6{fill:none;}.cls-2{fill:#1cc0a9;}.cls-3{stroke:#61d3c3;}.cls-11,.cls-3{stroke-miterlimit:10;}.cls-3,.cls-6{stroke-width:1.95px;}.cls-4{fill:#61d3c3;}.cls-5{fill:#1e2a4f;}.cls-6{stroke:#fff;}.cls-30,.cls-6{stroke-linecap:round;stroke-linejoin:round;}.cls-7{fill:#fff;}.cls-8{fill:#dff6f3;}.cls-9{fill:#f7cb42;}.cls-10{fill:#fbfbfb;}.cls-11{stroke:#959499;stroke-width:0.72px;}.cls-12{fill:#ebecef;}.cls-13{fill:#ffba99;}.cls-14{fill:#b8e745;}.cls-15{fill:#1b227a;}.cls-16{clip-path:url(#clip-path);}.cls-17{fill:#5f4456;}.cls-18{fill:#e3505b;}.cls-19{fill:#3095bc;}.cls-20{fill:#6dcaed;}.cls-21{fill:#d6dce5;}.cls-22{fill:#ff9e77;}.cls-23{fill:#55433e;}.cls-24{clip-path:url(#clip-path-2);}.cls-25{fill:#ff8279;}.cls-26{clip-path:url(#clip-path-3);}.cls-27{fill:#ba0411;}.cls-28{fill:#d9ad53;}.cls-29{fill:#f3c13a;}.cls-30{stroke:#dedfe4;stroke-width:7.96px;}.cls-31{fill:#dedfe4;}</style><clipPath id="clip-path" transform="translate(-866.72 -347.44)"><rect class="cls-1" x="880.98" y="868.38" width="184.68" height="6.11"/></clipPath><clipPath id="clip-path-2" transform="translate(-866.72 -347.44)"><rect class="cls-1" x="996.23" y="578.16" width="5.43" height="2.56"/></clipPath><clipPath id="clip-path-3" transform="translate(-866.72 -347.44)"><rect class="cls-1" x="1013.64" y="576.95" width="5.43" height="2.56"/></clipPath></defs><title>PW_website_signup</title><path class="cls-2" d="M1391.68,702.22c-7.81-38.89,17-40.4,17.57-90.52.22-20.5-7.87-41.37-27.33-50.95-9.57-4.71-19.1-7.94-27.62-15.43-19.4-17.05-19-49.5-24.34-77.16-11.62-60.75-52.17-108-97.45-106.42-32.64,1.13-66.33,1.5-96.08,39.95-20.36,26.31-86.19,22.6-105.09,49.73-20,28.73,8.18,78.58-19.21,87.81-25.9,8.73-54.08,19.11-73.91,45.29-18.63,24.59-15.91,50.32-7.93,80.52,8.81,33.3-10.29,56-30.21,68.92-16.77,10.92-24.62,10-32.41,36.09-8.44,28.32,41.47,28.8,64.78,28.8s285.92-2.49,370.31,1c22.71.93,95.18,9.52,105.43-29.78,7-26.75-11.06-40.66-16.51-67.82" transform="translate(-866.72 -347.44)"/><path class="cls-3" d="M1035.64,553.93c56.31,45.73,88.21,119.93,82.66,192.26" transform="translate(-866.72 -347.44)"/><path class="cls-4" d="M1047.15,564a42.79,42.79,0,0,0-20.88-21.23c-2.26-1-4.92-1.89-7.16-.81a2.8,2.8,0,0,0-1.44,1.4,3.56,3.56,0,0,0,.7,3.1c3.13,4.92,8.57,7.86,14,10.08s9.14,4.6,14.82,7.47" transform="translate(-866.72 -347.44)"/><path class="cls-4" d="M1061.28,579a42.77,42.77,0,0,0-27.58-11.21c-2.49-.07-5.27.22-6.9,2.1a2.79,2.79,0,0,0-.77,1.85,3.57,3.57,0,0,0,1.87,2.57c4.83,3.27,11,3.82,16.81,3.71s10.21.6,16.57,1" transform="translate(-866.72 -347.44)"/><path class="cls-4" d="M1078,600a42.77,42.77,0,0,0-26-14.49c-2.46-.37-5.26-.42-7.1,1.24a2.8,2.8,0,0,0-1,1.74,3.57,3.57,0,0,0,1.54,2.77c4.39,3.84,10.43,5.13,16.24,5.74s10.06,1.84,16.32,3" transform="translate(-866.72 -347.44)"/><path class="cls-4" d="M1091.44,622.42a42.79,42.79,0,0,0-26-14.49c-2.46-.37-5.26-.42-7.1,1.24a2.79,2.79,0,0,0-1,1.74,3.56,3.56,0,0,0,1.54,2.77c4.39,3.84,10.43,5.13,16.23,5.74s10.06,1.84,16.32,3" transform="translate(-866.72 -347.44)"/><path class="cls-4" d="M1105.3,654.26a42.78,42.78,0,0,0-24.37-17.11c-2.4-.62-5.18-1-7.19.5a2.79,2.79,0,0,0-1.16,1.63,3.57,3.57,0,0,0,1.25,2.92c4,4.27,9.84,6.18,15.55,7.39s9.82,2.88,15.93,4.67" transform="translate(-866.72 -347.44)"/><path class="cls-4" d="M1067.33,586.26a46.33,46.33,0,0,0,2.7-31.07c-.67-2.55-1.76-5.3-4-6.44a2.73,2.73,0,0,0-2-.28c-1,.33-1.6,1.5-1.93,2.59-1.74,5.79-.45,12.19,1.36,18.1s2.42,10.55,3.92,17.11" transform="translate(-866.72 -347.44)"/><path class="cls-4" d="M1079.74,602.88a46.36,46.36,0,0,0,10-29.53c0-2.63-.44-5.57-2.39-7.22a2.72,2.72,0,0,0-1.88-.75c-1.1.07-1.91,1.08-2.49,2.06-3.07,5.21-3.35,11.73-3,17.9s-.17,10.82-.28,17.55" transform="translate(-866.72 -347.44)"/><path class="cls-4" d="M1093.09,626.24a46.35,46.35,0,0,0,15.75-26.93c.49-2.58.68-5.54-.9-7.56a2.72,2.72,0,0,0-1.69-1.11c-1.09-.15-2.08.67-2.85,1.52-4,4.49-5.63,10.83-6.53,16.94s-2.33,10.57-3.78,17.14" transform="translate(-866.72 -347.44)"/><path class="cls-4" d="M1107.25,657.63a46.35,46.35,0,0,0,9.38-29.75c-.1-2.63-.57-5.55-2.55-7.17a2.75,2.75,0,0,0-1.9-.71c-1.1.09-1.89,1.12-2.44,2.11-3,5.28-3.09,11.8-2.61,18s.07,10.82.12,17.56" transform="translate(-866.72 -347.44)"/><path class="cls-5" d="M1349.52,507.33a9.16,9.16,0,1,1-5.11-11.9,9.16,9.16,0,0,1,5.11,11.9" transform="translate(-866.72 -347.44)"/><polyline class="cls-6" points="470.39 155.4 472.44 159.99 479.33 155.73"/><path class="cls-7" d="M1286.41,406.91a3.37,3.37,0,1,1-3.37-3.37,3.37,3.37,0,0,1,3.37,3.37" transform="translate(-866.72 -347.44)"/><path class="cls-8" d="M1333.13,577.26l133.24-.37-34-6.25s1.39-34.36-15.26-27.49S1399.78,565,1399.78,565s-6.25-13.74-15.26-8.75A34.45,34.45,0,0,0,1371.34,570s-3.24-9.89-9-10.45c-4.94-.48-14.34,8.93-19.27,14.22Z" transform="translate(-866.72 -347.44)"/><path class="cls-8" d="M1116.37,386.32l133.24-.42-34-6.94s1.39-38.15-15.26-30.52A29.69,29.69,0,0,0,1183,372.73s-6.24-15.26-15.26-9.71-13.18,15.26-13.18,15.26-3.24-11-9-11.6c-4.94-.53-14.35,9.91-19.27,15.79Z" transform="translate(-866.72 -347.44)"/><path class="cls-9" d="M1358.47,406.9l-5.22,1.81-2.27-6.52a23.1,23.1,0,1,0-43.64,15.15l2.27,6.53-5.24,1.82a7.89,7.89,0,0,0-4.85,10l14.74,42.46a7.92,7.92,0,0,0,10,4.92l54.1-18.78a7.93,7.93,0,0,0,4.89-10.1l-14.74-42.46a7.91,7.91,0,0,0-10.08-4.82m-41.27,7a12.65,12.65,0,1,1,23.91-8.3l2.27,6.52-23.91,8.3Zm31.36,38.7,3.76,10.84a.86.86,0,0,1-.58,1.09l-5.19,1.8a.85.85,0,0,1-1.07-.52L1341.72,455a10.09,10.09,0,1,1,6.84-2.37" transform="translate(-866.72 -347.44)"/><path class="cls-4" d="M1281.34,770.18c-2.49-4.86,3.35-10.06,8.72-11s11.47-.23,15.75-3.62c5.71-4.53,5.42-14.4,11.76-18,5.08-2.9,11.81-.13,17.2-2.43,6.69-2.85,8.57-12.17,15.14-15.3,5.23-2.5,12.07.32,14.75,5.47s1.44,11.8-2.26,16.26c-2.9,3.49-7.18,5.93-9,10.09-2.82,6.52,1.63,14.41-1,21-4.79,12.21-27.41,8.53-31.34,21-.87,2.78-.5,5.79-.73,8.7-.68,8.65-6.78,16.22-14.32,20.53s-16.35,5.81-25,6.41c-3.54.25-7.27.32-10.42-1.3-3-1.53-5-4.37-6.65-7.29-10.4-18.87-14.69-43.47,17.38-50.54" transform="translate(-866.72 -347.44)"/><path class="cls-4" d="M1114.5,760.15c5.59-3.7,2.48-12.78-2.69-17s-12.13-7.14-14.67-13.35c-3.39-8.29,2.87-18.67-1.73-26.35-3.69-6.16-12.56-7.26-16.94-13-5.44-7.08-1.84-18.18-7-25.48-4.09-5.82-13.11-6.93-19.07-3s-8.65,11.75-7.37,18.75c1,5.48,4.11,10.67,3.53,16.21-.91,8.67-10.42,14.44-11.63,23.07-2.23,15.94,24.18,25.63,20.85,41.38-.74,3.5-2.94,6.5-4.45,9.74-4.49,9.67-2.52,21.43,2.95,30.58s14,16.06,22.9,21.92c3.64,2.4,7.58,4.72,11.94,4.88,4.09.15,8-1.64,11.5-3.8,22.49-13.92,41.89-37.64,11.85-64.53" transform="translate(-866.72 -347.44)"/><path class="cls-4" d="M1261.25,780.14c7.82-3.38,14.87-9.62,20.71-15.64,15.75-16.26,25.52-37.5,30.66-59.35,4.65-19.78,5.68-40.23,4.71-60.48-.08-1.71-2.76-1.72-2.68,0,2.18,45.48-6.85,101.29-47.55,129a44.32,44.32,0,0,1-7.2,4.19c-1.58.68-.21,3,1.35,2.31" transform="translate(-866.72 -347.44)"/><path class="cls-4" d="M1313,697.49s2.58-14.73,22.1-17.06c0,0-7.12,17.44-22.1,17.06" transform="translate(-866.72 -347.44)"/><path class="cls-4" d="M1306.58,719.26s5.95-13.72,25.47-11.43c0,0-11,15.29-25.47,11.43" transform="translate(-866.72 -347.44)"/><path class="cls-4" d="M1298.29,738.46s8.87-12,27.39-5.44c0,0-14.14,12.44-27.39,5.44" transform="translate(-866.72 -347.44)"/><path class="cls-4" d="M1316,674.61s2.54-14.48,21.72-16.78c0,0-7,17.14-21.72,16.78" transform="translate(-866.72 -347.44)"/><path class="cls-4" d="M1316.24,649.44s-10.92-9.84-2.68-27.32c0,0,10.81,15,2.68,27.32" transform="translate(-866.72 -347.44)"/><path class="cls-4" d="M1316.31,664.37s-14.46-2.67-16.57-21.88c0,0,17.08,7.16,16.57,21.88" transform="translate(-866.72 -347.44)"/><path class="cls-4" d="M1314.86,686.43s-14.46-2.67-16.57-21.88c0,0,17.08,7.16,16.57,21.88" transform="translate(-866.72 -347.44)"/><path class="cls-4" d="M1311.11,707.1s-14.24-3.67-15-23c0,0,16.53,8.34,15,23" transform="translate(-866.72 -347.44)"/><path class="cls-4" d="M1304.55,727.75s-14.24-3.68-15-23c0,0,16.53,8.34,15,23" transform="translate(-866.72 -347.44)"/><path class="cls-5" d="M1263.73,832H1117.23a30.64,30.64,0,0,1-30.64-30.64V455.18a30.64,30.64,0,0,1,30.64-30.64h146.51a30.64,30.64,0,0,1,30.64,30.64V801.34A30.64,30.64,0,0,1,1263.73,832" transform="translate(-866.72 -347.44)"/><path class="cls-10" d="M1263.32,817.57H1117.64a21.46,21.46,0,0,1-21.46-21.46V458a21.46,21.46,0,0,1,21.46-21.46h145.69A21.46,21.46,0,0,1,1284.78,458V796.12a21.46,21.46,0,0,1-21.46,21.46" transform="translate(-866.72 -347.44)"/><path class="cls-5" d="M1246.92,436.52h-12.26a6.81,6.81,0,0,0-6.81,6.81v4.87A6.81,6.81,0,0,1,1221,455h-54.7a6.81,6.81,0,0,1-6.81-6.81v-4.87a6.82,6.82,0,0,0-6.82-6.81h-34.83V433h129Z" transform="translate(-866.72 -347.44)"/><path class="cls-2" d="M1227.32,761.69h-75.64a1.42,1.42,0,0,1-1.42-1.42V745.48a1.42,1.42,0,0,1,1.42-1.42h75.64a1.42,1.42,0,0,1,1.42,1.42v14.79a1.42,1.42,0,0,1-1.42,1.42" transform="translate(-866.72 -347.44)"/><rect class="cls-11" x="256.04" y="197.76" width="143.55" height="21.63" rx="4" ry="4"/><rect class="cls-11" x="256.04" y="246.09" width="143.55" height="21.63" rx="4" ry="4"/><rect class="cls-11" x="256.04" y="296.93" width="143.55" height="21.63" rx="4" ry="4"/><rect class="cls-11" x="256.04" y="348.01" width="143.55" height="21.63" rx="4" ry="4"/><path class="cls-12" d="M1262.39,893.66c0-1.69-41.34-3.05-92.34-3.05s-92.34,1.37-92.34,3.05,41.34,3.06,92.34,3.06,92.34-1.37,92.34-3.06" transform="translate(-866.72 -347.44)"/><path class="cls-13" d="M1179.8,698.28s9.18,14.17,11.25,8l3.35-9.9s-2.61-4.27-4-3-3.32-1.12-3.32-1.12Z" transform="translate(-866.72 -347.44)"/><path class="cls-13" d="M1225.15,625l3.79-22c2.49-.8,5.05-2.73,4.17-5.7a4.38,4.38,0,0,0-3-2.79c-.52-.2-3.17-1-3.35.06l1.44-7.93-25.82-12.46-2.38,16c0-.25-2.51-.82-2.86-.78a4.33,4.33,0,0,0-3.07,2.48c-1.34,3,1.26,6.78,4.5,6.83,0,0,.44,7.09,2.09,9.61s9.24,4.25,9.24,4.25l-.83,9.59Z" transform="translate(-866.72 -347.44)"/><path class="cls-14" d="M1233.87,626.81c-11.67-3.27-28.05-6.16-28.05-6.16l-10.87,77.43,45.8-1.41Z" transform="translate(-866.72 -347.44)"/><path class="cls-14" d="M1233.87,626.81a303.06,303.06,0,0,0,45.94,8.63c-3.49-15.87-5.4-28-10-41.48l17.2-4.38s14.43,50.25,10,57c-7.45,11.4-44.56,3.89-44.56,3.89L1235,647.3Z" transform="translate(-866.72 -347.44)"/><path class="cls-14" d="M1155.43,643.85s49.16-24.05,51.42-23.16,4.18,12,4.18,12a433.07,433.07,0,0,1-45.38,24.15L1190.72,691l-12.49,9s-34.42-38.69-33.11-46.68c1-6.17,10.31-9.42,10.31-9.42" transform="translate(-866.72 -347.44)"/><path class="cls-13" d="M1286.32,589.77s-2-14.22-2.28-14.63-.24-2.92-3.9-2.31c0,0-.24-4.51-2.35-4.59a19.23,19.23,0,0,0-4.46.49s-2.37-11.55-3.92-13.56c-1.68-2.19-4,3.57-.39,17.66,0,0,2,9.58,1.42,9.93-1.63,1-3.88.78-7-4.54-3.3-5.65-7.42-3.73-5.39.65s4.9,10.05,6.77,11.6,5.81,1.31,5.81,1.31l.58,1.83Z" transform="translate(-866.72 -347.44)"/><path class="cls-5" d="M1240.75,696.66c-5.52,83.79-24.25,187.19-24.25,187.19l18.34,7.77h-39.07l25.62-182.85h-8.78l-64.81,183h-39l22.2-8.09,64.79-191.51Z" transform="translate(-866.72 -347.44)"/><path class="cls-15" d="M1231.35,595.08c2.18-4.37,4.74-15-1.89-17.91a68.25,68.25,0,0,1-9.64-5.49,16.79,16.79,0,0,0-13.75-2.48,12.61,12.61,0,0,0-2.17.81c-4.63,2.27-7.75,14.57-7.75,14.57l4.55,1.14s5.07,22.55,13.41,27.19l8.33,1.76,4.93,1.11Z" transform="translate(-866.72 -347.44)"/><path class="cls-15" d="M1225.31,575.61a31.7,31.7,0,0,0-.15-4c-.06-.55-.92-.55-.87,0a30.63,30.63,0,0,1,.16,4,.43.43,0,0,0,.86,0" transform="translate(-866.72 -347.44)"/><path class="cls-15" d="M1225.31,575.78a3.78,3.78,0,0,0,1.08-1.59,16.13,16.13,0,0,1,1.36-2.07c.34-.44-.41-.87-.74-.44a16.53,16.53,0,0,0-1.1,1.61c-.28.48-.55,1.43-1,1.74s0,1,.43.74" transform="translate(-866.72 -347.44)"/><g class="cls-16"><path class="cls-12" d="M1065.66,871.44c0-1.69-41.34-3.05-92.34-3.05S881,869.75,881,871.44s41.34,3.05,92.34,3.05,92.34-1.37,92.34-3.05" transform="translate(-866.72 -347.44)"/></g><path class="cls-17" d="M1005.09,550.85a42.23,42.23,0,0,0-5.57-.66c-3.3-.31-6.32,1.83-8.82,4a29,29,0,0,0-5.92,7.94c-1.65,3-3.2,6.39-2.22,9.64a8.44,8.44,0,0,1,.65,2.49c0,2.69-3.74,3.7-4.89,6.12-1.43,3,1.49,7-.49,9.69-1,1.33-2.89,1.75-3.83,3.11a6.11,6.11,0,0,0-.65,3.78,1.06,1.06,0,0,0,.23.75,1,1,0,0,0,.63.2c10.58,1,21-1.27,31.62-.25a18.17,18.17,0,0,0,3.84.1,17.87,17.87,0,0,0,5.22-1.74c9.14-4.17,18.3-5.25,27.23-9.84a2,2,0,0,0,1-.79,1.72,1.72,0,0,0,.11-.95,6.23,6.23,0,0,0-4.24-5.19c-2.33-.73-5.12-.09-7.06-1.57-1.4-1.06-1.91-2.93-2.09-4.68-.38-3.56,0-7.67-2.54-10.15-2-1.94-5.25-2.15-7.28-4.09-1.15-1.1-1.77-2.64-2.71-3.93-2.72-3.79-7.36-6-12.17-4" transform="translate(-866.72 -347.44)"/><path class="cls-18" d="M987.41,673.07l-59,186.58-23.21,8.95h34.44l66.57-175.78a2.9,2.9,0,0,1,5.6,1.34L994.32,868.6h34.86l-23.27-7.69s21.68-101.44,26.51-133.17-2.17-54.16-2.17-54.16-22.6-7.17-42.83-.49" transform="translate(-866.72 -347.44)"/><path class="cls-15" d="M988.1,605.92c5.4-5.65,26.89-6.29,34.65-3.11s22.06,44.44,22.06,44.44l-14.21,5.58-8.82-34.49-27.64-3.81Z" transform="translate(-866.72 -347.44)"/><path class="cls-15" d="M1024.41,623.41a45.71,45.71,0,0,0,2.94-10.12c.52-4.41-5.48-8.72-5.48-8.72L989.36,613l2,19.37-4.77,39.13,41.32,1.53-4.15-49.47" transform="translate(-866.72 -347.44)"/><path class="cls-19" d="M991.84,624.53a.66.66,0,0,1-.53-1.06l2.31-3.08a.66.66,0,1,1,1.06.79l-2.31,3.08a.66.66,0,0,1-.53.27" transform="translate(-866.72 -347.44)"/><path class="cls-20" d="M971.2,678.18l7.45-4.34" transform="translate(-866.72 -347.44)"/><path class="cls-13" d="M1003.38,601.26c-.45-4.32,1.76-8.7-5.21-11.49-9.61-3.85-11.67-37,5.68-37s16.5,21.79,16.43,28.28-5.78,8.14-7.21,10.49-.2,9.76-.2,9.76Z" transform="translate(-866.72 -347.44)"/><path class="cls-13" d="M993.54,576.18a3.37,3.37,0,1,1-3.33-3.85,3.62,3.62,0,0,1,3.33,3.85" transform="translate(-866.72 -347.44)"/><path class="cls-13" d="M1024.67,573.2a3.37,3.37,0,1,1-3.33-3.85,3.62,3.62,0,0,1,3.33,3.85" transform="translate(-866.72 -347.44)"/><path class="cls-21" d="M1093.17,643.33l-5.14-13L942.57,687.4a30.82,30.82,0,1,0,6,18.31,31.43,31.43,0,0,0-.23-3.74l110.77-44.86,6.08,13.38,13.51-6.19L1074,653.65l4.38-2.32,5.15,10.25,9.66-5.16-5.35-10.92ZM917.78,725.79a20.08,20.08,0,1,1,20.08-20.08,20.08,20.08,0,0,1-20.08,20.08" transform="translate(-866.72 -347.44)"/><path class="cls-15" d="M988.1,605.92s-36.67,32.65-36.87,38.71,21.61,37.94,21.61,37.94l10.9-6.89L968.47,647.1l24.84-23.69s.81,5.5,2.8,7l1.11-21.79Z" transform="translate(-866.72 -347.44)"/><path class="cls-17" d="M1016.8,560.35c-4.77.24-25.9,2.39-25.9,2.39s3.09-12.68,12.95-13.18c12.95-.65,12.95,10.79,12.95,10.79" transform="translate(-866.72 -347.44)"/><path class="cls-17" d="M990.93,573.74s17.12-1.6,20.12-9.69c0,0,5.69,7.27,9,6.9,0,0,.55-9.56-1.53-10.86s-28.34,1.37-28.34,1.37a41.72,41.72,0,0,0,.73,12.27" transform="translate(-866.72 -347.44)"/><path class="cls-13" d="M973.29,682.19s4.68,9.86,4.95,10.1.83,2.06,3.35.8c0,0,1.19,3.22,2.74,2.8a14.67,14.67,0,0,0,3.13-1.36s1.88,2.5,3.27,1.18c1.63-1.54.08-3.26-1.08-5.12,0,0-3.62-6.5-3.27-6.89,1-1.06,2.64-1.44,6.09,1.72,3.67,3.35,6.22,1,3.76-1.68s-5.82-6.19-7.53-6.89-4.51.36-4.51.36l-.84-1.2Z" transform="translate(-866.72 -347.44)"/><path class="cls-15" d="M1048.27,661.51s-2.63,7.46-7.21,8.72-30.31,6.48-30.31,6.48V666.53Z" transform="translate(-866.72 -347.44)"/><path class="cls-13" d="M1010.75,667.75h-2a13.18,13.18,0,0,0-.72-1.83c-.8-1.3-11.57-2.67-11.37-1.26s2,1.76,5.76,2.46c0,0-14.2,3.45-12.87,4.57s10.2-1.46,10.2-1.46-9.61,3.13-8.93,5.26c.39,1.22,10.13-1.65,10.13-1.65s-9.92,3.55-8.16,4.75,12.73-1.5,13.78-1.87,1.46-2.41,1.46-2.41l2.68-.46Z" transform="translate(-866.72 -347.44)"/><path class="cls-17" d="M1002.67,545.68c.38,1.57.54,3.53,1.43,4.9.37.57,1.29,0,.92-.53-.83-1.27-1-3.19-1.33-4.65-.16-.66-1.18-.38-1,.28" transform="translate(-866.72 -347.44)"/><path class="cls-17" d="M1005,550.68q.81-1.45,1.74-2.82c.38-.57-.53-1.1-.92-.54q-.93,1.37-1.74,2.82c-.33.6.58,1.13.92.54" transform="translate(-866.72 -347.44)"/><path class="cls-22" d="M1007,573a24.87,24.87,0,0,0,.13,3.65c.07.62,0,1.73.45,2.21.25.27.76.25,1.08.3,1.16.18,2.34.31,3.5.47l-.19-.45a10.83,10.83,0,0,1-3.32,2.17c-.31.13,0,.59.27.46a11.3,11.3,0,0,0,3.43-2.25.27.27,0,0,0-.19-.45c-1.22-.16-3.7,0-4.33-1.31s-.34-3.5-.3-4.78c0-.34-.52-.34-.53,0" transform="translate(-866.72 -347.44)"/><path class="cls-23" d="M1012.48,576.66c.15-1.21-.62-4,.91-4.63,1.36-.52,2.21.61,2.43,1.75.13.72.26,1.44.39,2.15.06.34.57.19.51-.14-.32-1.76-.4-4.77-3-4.41-2.44.33-1.55,3.72-1.75,5.28,0,.34.49.33.53,0" transform="translate(-866.72 -347.44)"/><path class="cls-23" d="M998.78,577.38c.15-1.21-.62-4,.91-4.63,1.36-.52,2.21.61,2.43,1.75.13.72.26,1.44.39,2.15.06.33.57.19.51-.14-.32-1.76-.4-4.77-3-4.41-2.44.33-1.55,3.72-1.75,5.28,0,.34.49.33.53,0" transform="translate(-866.72 -347.44)"/><path class="cls-22" d="M1002.39,580.46c.57,4.42,8,5.3,10.8,2.62.25-.24-.13-.61-.38-.37-2.3,2.24-9.38,1.72-9.89-2.25,0-.33-.58-.34-.53,0" transform="translate(-866.72 -347.44)"/><path class="cls-22" d="M1002.29,581.2a1,1,0,0,1,1.12-.69c.33.06.48-.46.14-.51a1.56,1.56,0,0,0-1.77,1.06c-.1.33.41.47.51.14" transform="translate(-866.72 -347.44)"/><g class="cls-24"><path class="cls-25" d="M1001.62,578.7c.24.59-.81,1.56-2.41,1.9a4.32,4.32,0,0,1-2,0,1.52,1.52,0,0,1-.91-.58.53.53,0,0,1,0-.51,1.61,1.61,0,0,1,.59-.53,6.57,6.57,0,0,1,1.82-.65c1.39-.3,2.66-.23,2.9.37" transform="translate(-866.72 -347.44)"/></g><g class="cls-26"><path class="cls-25" d="M1019,577.48c.24.59-.81,1.56-2.41,1.9a4.35,4.35,0,0,1-2,0,1.5,1.5,0,0,1-.91-.58.52.52,0,0,1,0-.51,1.59,1.59,0,0,1,.59-.53,6.65,6.65,0,0,1,1.82-.65c1.39-.3,2.66-.23,2.9.37" transform="translate(-866.72 -347.44)"/></g><path class="cls-22" d="M990,574.18a1.68,1.68,0,0,0-1.51,2,1.92,1.92,0,0,0,1.79,1.81c.34,0,.34-.51,0-.53-1.41-.1-1.85-2.68-.28-2.74.34,0,.34-.54,0-.53" transform="translate(-866.72 -347.44)"/><path class="cls-22" d="M988.57,575.63a2.44,2.44,0,0,0,2.08.91c.34,0,.34-.55,0-.53a2,2,0,0,1-1.7-.76c-.21-.27-.59.11-.38.38" transform="translate(-866.72 -347.44)"/><path class="cls-22" d="M1021.07,575.09c1.15.27,1.78-.77,1.93-1.77a1.92,1.92,0,0,0-1.68-2.27c-.34,0-.34.5,0,.53a1.39,1.39,0,0,1,1.18,1.51c-.06.67-.4,1.69-1.29,1.48-.33-.08-.47.43-.14.51" transform="translate(-866.72 -347.44)"/><path class="cls-22" d="M1021.39,573.53a2.79,2.79,0,0,0,.91-1.7c0-.34-.46-.48-.51-.14a2.37,2.37,0,0,1-.78,1.47c-.26.23.12.6.38.37" transform="translate(-866.72 -347.44)"/><path class="cls-27" d="M1015.72,501.77a9.16,9.16,0,1,1-12-4.81,9.16,9.16,0,0,1,12,4.81" transform="translate(-866.72 -347.44)"/><polyline class="cls-6" points="137.05 159.91 141.75 161.71 143.61 153.84"/><path class="cls-27" d="M1406.4,684.53a3.37,3.37,0,1,1-3.37-3.37,3.36,3.36,0,0,1,3.37,3.37" transform="translate(-866.72 -347.44)"/><path class="cls-7" d="M1393.55,612.47a1.08,1.08,0,0,1-1.08-1.07v-7.58a1.07,1.07,0,1,1,2.15,0v7.58a1.07,1.07,0,0,1-1.07,1.07" transform="translate(-866.72 -347.44)"/><path class="cls-7" d="M1397.34,608.69h-7.58a1.07,1.07,0,0,1,0-2.15h7.58a1.07,1.07,0,0,1,0,2.15" transform="translate(-866.72 -347.44)"/><path class="cls-28" d="M1037.89,807.46l2.32,3.33a1.14,1.14,0,0,0,1.27.44l3.89-1.17a1.21,1.21,0,0,1,1.32,1.9l-2.45,3.23a1.14,1.14,0,0,0,0,1.34l2.32,3.33a1.21,1.21,0,0,1-1.4,1.84l-3.83-1.33a1.14,1.14,0,0,0-1.29.39l-2.46,3.23a1.21,1.21,0,0,1-2.18-.76l.09-4.06a1.15,1.15,0,0,0-.77-1.11l-3.83-1.33a1.21,1.21,0,0,1,.05-2.31l3.88-1.17a1.15,1.15,0,0,0,.81-1.07l.08-4.06a1.21,1.21,0,0,1,2.21-.67" transform="translate(-866.72 -347.44)"/><path class="cls-29" d="M1037.53,807.3l2.32,3.34a1.15,1.15,0,0,0,1.27.44l3.89-1.18a1.22,1.22,0,0,1,1.32,1.9l-2.45,3.23a1.14,1.14,0,0,0,0,1.34l2.32,3.33a1.21,1.21,0,0,1-1.4,1.84l-3.83-1.34a1.15,1.15,0,0,0-1.29.39l-2.46,3.23a1.21,1.21,0,0,1-2.18-.76l.08-4.06a1.14,1.14,0,0,0-.77-1.11l-3.83-1.33a1.21,1.21,0,0,1,0-2.31l3.89-1.17a1.15,1.15,0,0,0,.81-1.07l.08-4.06a1.21,1.21,0,0,1,2.21-.67" transform="translate(-866.72 -347.44)"/><path class="cls-7" d="M1034,814.32c.37-.19.75-.36,1.14-.51l.14-.06.07,0,.06,0a1.76,1.76,0,0,0,.24-.16,1.64,1.64,0,0,0,.38-.43,1.53,1.53,0,0,0,.22-.53,1.5,1.5,0,0,0,0-.29V812c0-.41,0-.83.06-1.24.07.41.11.82.14,1.24,0,.11,0,.2,0,.32a1.86,1.86,0,0,1,0,.33,1.8,1.8,0,0,1-.24.62,1.78,1.78,0,0,1-.45.48,1.81,1.81,0,0,1-.29.17l-.08,0-.08,0-.15,0c-.39.12-.79.23-1.2.32" transform="translate(-866.72 -347.44)"/><path class="cls-7" d="M1031.88,814.65l-.61.23-.07,0h-.07l-.13.07a.76.76,0,0,0-.2.16.48.48,0,0,0-.11.19.37.37,0,0,0,0,.1v.11a3.19,3.19,0,0,1,0,.43,2.81,2.81,0,0,1-.1-.42,1.07,1.07,0,0,1,0-.11.36.36,0,0,1,0-.12.52.52,0,0,1,.12-.22.87.87,0,0,1,.24-.19l.15-.07,0,0h0l.08,0,.65-.16" transform="translate(-866.72 -347.44)"/><line class="cls-30" x1="266.58" y1="208.58" x2="347.52" y2="208.58"/><circle class="cls-31" cx="267.65" cy="257.39" r="5.13"/><circle class="cls-31" cx="283.04" cy="257.39" r="5.13"/><circle class="cls-31" cx="298.43" cy="257.39" r="5.13"/><circle class="cls-31" cx="313.82" cy="257.39" r="5.13"/><path class="cls-27" d="M1094.61,392.69a1.08,1.08,0,0,1-1.08-1.07V384a1.07,1.07,0,0,1,2.15,0v7.58a1.07,1.07,0,0,1-1.07,1.07" transform="translate(-866.72 -347.44)"/><path class="cls-27" d="M1098.39,388.9h-7.57a1.07,1.07,0,1,1,0-2.15h7.57a1.07,1.07,0,1,1,0,2.15" transform="translate(-866.72 -347.44)"/></svg>